<?xml version="1.0" encoding="utf-8"?>
<!-- Generator: Adobe Illustrator 27.5.0, SVG Export Plug-In . SVG Version: 6.00 Build 0)  -->
<svg version="1.1" xmlns="http://www.w3.org/2000/svg" xmlns:xlink="http://www.w3.org/1999/xlink" x="0px" y="0px"
	 viewBox="0 0 500 500" style="enable-background:new 0 0 500 500;" xml:space="preserve">
<g id="BACKGROUND">
	<rect style="fill:#FFFFFF;" width="500" height="500"/>
</g>
<g id="OBJECTS">
	<g>
		<polygon style="fill:#FFA1BE;" points="29.894,311.7 218.44,300.242 211.209,409.403 44.608,416.531 		"/>
		<polyline style="fill:#002547;" points="121.798,413.518 128.159,443.071 136.389,445.129 144.806,412.582 		"/>
		<path style="fill:#002547;" d="M164.634,445.784c0,3.873-15.117,7.014-33.765,7.014c-18.645,0-33.762-3.141-33.762-7.014
			c0-3.876,15.117-7.017,33.762-7.017C149.517,438.768,164.634,441.908,164.634,445.784z"/>
		<g>
			
				<rect x="71.668" y="322.168" transform="matrix(0.9984 -0.0557 0.0557 0.9984 -20.2605 4.6426)" style="fill:#002547;" width="2.993" height="87.303"/>
			
				<rect x="68.69" y="319.407" transform="matrix(0.9987 -0.0515 0.0515 0.9987 -17.3066 4.1406)" style="fill:#002547;" width="5.985" height="36.886"/>
		</g>
		<g>
			<polygon style="fill:#FFC931;" points="88.208,333.257 120.273,331.121 120.273,355.784 90.674,357.264 			"/>
			<path style="fill:#FFFFFF;" d="M112.874,344.44c0,3.632-3.901,6.576-8.715,6.576c-4.814,0-8.716-2.944-8.716-6.576
				c0-3.635,3.902-6.579,8.716-6.579C108.973,337.86,112.874,340.805,112.874,344.44z"/>
			<polygon style="fill:#002547;" points="103.337,348.221 102.021,341.972 109.749,344.191 			"/>
		</g>
		<g>
			<polygon style="fill:#33BFE5;" points="125.042,331.612 157.107,329.476 157.107,354.14 127.509,355.619 			"/>
			<path style="fill:#FFFFFF;" d="M149.708,342.795c0,3.632-3.902,6.578-8.715,6.578c-4.814,0-8.715-2.946-8.715-6.578
				c0-3.633,3.901-6.579,8.715-6.579C145.806,336.216,149.708,339.162,149.708,342.795z"/>
			<polygon style="fill:#002547;" points="140.17,346.575 138.855,340.327 146.583,342.549 			"/>
		</g>
		<g>
			<polygon style="fill:#002547;" points="162.041,329.394 194.106,327.255 194.106,351.921 164.507,353.4 			"/>
			<path style="fill:#FFFFFF;" d="M186.705,340.575c0,3.63-3.9,6.577-8.714,6.577c-4.814,0-8.714-2.947-8.714-6.577
				c0-3.634,3.9-6.578,8.714-6.578C182.805,333.997,186.705,336.941,186.705,340.575z"/>
			<polygon style="fill:#002547;" points="177.169,344.356 175.854,338.108 183.581,340.327 			"/>
		</g>
		<g>
			<polygon style="fill:#33BFE5;" points="91.304,362.463 123.37,360.324 123.37,384.99 93.771,386.47 			"/>
			<path style="fill:#FFFFFF;" d="M115.971,373.645c0,3.633-3.903,6.577-8.715,6.577c-4.813,0-8.716-2.944-8.716-6.577
				c0-3.632,3.903-6.578,8.716-6.578C112.068,367.066,115.971,370.013,115.971,373.645z"/>
			<polygon style="fill:#002547;" points="106.433,377.426 105.117,371.178 112.846,373.397 			"/>
		</g>
		<g>
			<polygon style="fill:#FFC931;" points="128.139,360.818 160.204,358.68 160.204,383.346 130.606,384.825 			"/>
			<path style="fill:#FFFFFF;" d="M152.805,372c0,3.633-3.903,6.577-8.716,6.577c-4.813,0-8.714-2.944-8.714-6.577
				c0-3.635,3.902-6.578,8.714-6.578C148.902,365.422,152.805,368.365,152.805,372z"/>
			<polygon style="fill:#002547;" points="143.268,375.781 141.951,369.533 149.68,371.752 			"/>
		</g>
		<g>
			<polygon style="fill:#FF577F;" points="165.056,358.599 197.121,356.46 197.121,381.124 167.52,382.605 			"/>
			<path style="fill:#FFFFFF;" d="M189.803,369.779c0,3.634-3.903,6.578-8.715,6.578c-4.813,0-8.715-2.944-8.715-6.578
				c0-3.633,3.901-6.577,8.715-6.577C185.9,363.202,189.803,366.147,189.803,369.779z"/>
			<polygon style="fill:#002547;" points="180.265,373.563 178.949,367.315 186.678,369.533 			"/>
		</g>
		<g>
			<polygon style="fill:#FF577F;" points="92.32,390.827 124.385,388.691 124.385,413.357 94.786,414.837 			"/>
			<path style="fill:#FFFFFF;" d="M116.984,402.01c0,3.632-3.9,6.576-8.714,6.576c-4.814,0-8.716-2.944-8.716-6.576
				c0-3.633,3.902-6.579,8.716-6.579C113.083,395.431,116.984,398.377,116.984,402.01z"/>
			<polygon style="fill:#002547;" points="107.447,405.793 106.132,399.542 113.861,401.762 			"/>
		</g>
		<g>
			<polygon style="fill:#FFC931;" points="129.154,389.185 161.218,387.044 161.218,411.71 131.62,413.191 			"/>
			<path style="fill:#FFFFFF;" d="M153.82,400.367c0,3.632-3.904,6.576-8.716,6.576c-4.814,0-8.715-2.944-8.715-6.576
				c0-3.635,3.901-6.579,8.715-6.579C149.916,393.788,153.82,396.732,153.82,400.367z"/>
			<polygon style="fill:#002547;" points="144.282,404.148 142.966,397.897 150.695,400.119 			"/>
		</g>
		<g>
			<polygon style="fill:#33BFE5;" points="166.151,386.964 198.217,384.825 198.217,409.491 168.618,410.971 			"/>
			<path style="fill:#FFFFFF;" d="M190.818,398.146c0,3.633-3.903,6.577-8.715,6.577c-4.814,0-8.716-2.944-8.716-6.577
				c0-3.634,3.902-6.579,8.716-6.579C186.915,391.566,190.818,394.512,190.818,398.146z"/>
			<polygon style="fill:#002547;" points="181.279,401.927 179.963,395.679 187.693,397.897 			"/>
		</g>
		<path style="fill:#002547;" d="M24.053,308.208L41.18,421.373l172.648-10.287l8.792-114.542L24.053,308.208z M208.778,405.101
			l-161.987,9.54L35.193,316.25l180.319-10.287L208.778,405.101z"/>
		<path style="fill:#FFFFFF;" d="M128.605,450.604c-20.378,0-28.536-6.493-28.65-6.591l0.476-0.576
			c0.166,0.137,17.006,13.47,63.266,1.33l0.189,0.724C149.404,449.291,137.768,450.604,128.605,450.604z"/>
		
			<rect x="118.602" y="411.39" transform="matrix(0.9989 -0.0468 0.0468 0.9989 -19.1507 6.6762)" style="fill:#FFFFFF;" width="28.932" height="2.245"/>
		
			<rect x="41.71" y="340.142" transform="matrix(0.997 -0.0773 0.0773 0.997 -26.2775 5.0295)" style="fill:#FFFFFF;" width="20.262" height="3.742"/>
		
			<rect x="42.832" y="352.31" transform="matrix(0.997 -0.0774 0.0774 0.997 -27.2589 5.1629)" style="fill:#FFFFFF;" width="20.263" height="3.741"/>
		
			<rect x="43.615" y="363.948" transform="matrix(0.997 -0.0774 0.0774 0.997 -28.1672 5.2605)" style="fill:#FFFFFF;" width="20.263" height="3.741"/>
		
			<rect x="45.16" y="376.705" transform="matrix(0.997 -0.077 0.077 0.997 -28.979 5.3797)" style="fill:#FFFFFF;" width="20.261" height="3.743"/>
		<g>
			<path style="fill:#FFFFFF;" d="M56.599,327.255c0,3.691-3.493,6.681-7.803,6.681c-4.309,0-7.804-2.989-7.804-6.681
				c0-3.691,3.495-6.684,7.804-6.684C53.106,320.571,56.599,323.564,56.599,327.255z"/>
			<path style="fill:#002547;" d="M50.22,329.152c2.058-0.478,3.56-1.959,3.56-3.718c0-2.143-2.232-3.88-4.984-3.88
				c-2.753,0-4.982,1.737-4.982,3.88c0,2.143,2.229,3.881,4.982,3.881v1.526l-3.751,1.496c0,0,4.438,2.805,8.735-0.875l-3.186-0.685
				L50.22,329.152z"/>
		</g>
	</g>
	<g>
		<g>
			<g>
				<path style="fill:#FFC931;" d="M220.165,157.997c0,0,29.785-56.079-1.288-67.478c-38.758-14.22-125.578-9.561-166.212,2.941
					c-35.42,10.899-9.377,73.729-9.377,73.729L220.165,157.997z"/>
				<polygon style="opacity:0.2;fill:#FFFFFF;" points="220.665,96.937 45.295,101.578 51.792,163.88 214.28,157.444 				"/>
			</g>
			<g>
				<path style="fill:#FFC931;" d="M215.384,205.985c0,0-172.831,2.575-172.647,3.125c0.182,0.552-15.164-25.924-13.374-45.965
					c1.79-20.042,22.015-23.168,36.539-5.516l136.611-1.655c0,0,1.287-19.121,16.548-14.71
					C234.322,145.678,228.805,182.634,215.384,205.985z"/>
				<path style="opacity:0.2;fill:#FFFFFF;" d="M212.688,204.085c0,0,16.542-47.495,2.696-53.566
					c-13.847-6.068-18.924,53.566-18.924,53.566"/>
				<path style="opacity:0.2;fill:#FFFFFF;" d="M45.495,208.007c0,0-19.607-52.065-1.838-56.166
					c17.767-4.102,26.241,54.511,26.241,54.511"/>
			</g>
			<g>
				<g>
					<g>
						<path style="fill:#002547;" d="M79.081,45.347l-1.229,16.797l-29.621,41.654c-2.096-2.617-5.37-5.557-6.209-9.323
							l-3.149-29.513C38.875,64.962,54.32,46.818,79.081,45.347z"/>
						<g style="opacity:0.2;">
							<path style="fill:#FFFFFF;" d="M45.57,69.829c-1.133,0.52-2.618,0.909-3.498-0.213c-0.509-0.651-0.467-1.776-0.23-2.507
								c0.604-1.867,3.263-2.577,4.922-1.886c1.729,0.722,1.411,3.303-0.505,3.562c-0.76,0.1-1.614-0.171-2.07-0.801
								c-0.156-0.214-0.181-0.484-0.188-0.738c0.024-0.336,0.171-0.609,0.441-0.82c0.567-0.153,1.135-0.31,1.703-0.464
								c0.494,0.362,0.431,0.731-0.188,1.108c-0.202,0.043-0.476,0.262-0.103,0.181c0.508-0.111,0.931-0.239,1.146-0.758
								c0.217-0.531-0.576-0.883-0.97-0.856c-1.129,0.076-2.766,0.786-2.521,2.149c0.202,1.133,1.91,1.346,2.804,1.159
								c1.214-0.254,2.179-0.927,2.116-2.283c-0.145-3.086-4.912-1.795-6.306-0.599c-1.146,0.981-1.38,2.996-0.246,4.068
								c1.009,0.955,2.954,0.233,3.996-0.247C46.192,69.737,45.688,69.774,45.57,69.829L45.57,69.829z"/>
							<path style="fill:#FFFFFF;" d="M61.909,55.616c-1.133,0.519-2.618,0.91-3.497-0.213c-0.509-0.65-0.467-1.777-0.23-2.508
								c0.604-1.867,3.262-2.575,4.922-1.884c1.729,0.72,1.411,3.303-0.504,3.559c-0.761,0.102-1.615-0.17-2.071-0.8
								c-0.156-0.215-0.181-0.484-0.188-0.737c0.025-0.337,0.171-0.61,0.44-0.821c0.568-0.154,1.136-0.309,1.703-0.464
								c0.494,0.362,0.432,0.732-0.187,1.109c-0.203,0.044-0.478,0.26-0.104,0.18c0.508-0.11,0.931-0.239,1.146-0.76
								c0.218-0.529-0.575-0.881-0.97-0.854c-1.13,0.075-2.766,0.786-2.521,2.149c0.202,1.134,1.909,1.346,2.804,1.159
								c1.215-0.253,2.179-0.926,2.116-2.283c-0.144-3.086-4.912-1.795-6.306-0.599c-1.146,0.982-1.38,2.994-0.245,4.069
								c1.008,0.955,2.953,0.231,3.995-0.248C62.53,55.525,62.027,55.562,61.909,55.616L61.909,55.616z"/>
							<path style="fill:#FFFFFF;" d="M74.214,61.686c-1.133,0.521-2.619,0.909-3.497-0.211c-0.509-0.65-0.467-1.778-0.231-2.508
								c0.603-1.868,3.263-2.577,4.921-1.885c1.73,0.72,1.411,3.304-0.504,3.56c-0.76,0.102-1.614-0.17-2.073-0.801
								c-0.155-0.212-0.178-0.484-0.187-0.737c0.026-0.335,0.172-0.608,0.441-0.818c0.568-0.156,1.135-0.311,1.703-0.466
								c0.495,0.363,0.432,0.731-0.187,1.107c-0.202,0.046-0.477,0.262-0.104,0.182c0.508-0.111,0.931-0.239,1.145-0.76
								c0.219-0.53-0.573-0.88-0.969-0.854c-1.13,0.076-2.766,0.786-2.521,2.148c0.205,1.134,1.911,1.346,2.805,1.159
								c1.214-0.254,2.179-0.926,2.115-2.282c-0.146-3.086-4.911-1.795-6.307-0.599c-1.145,0.981-1.378,2.994-0.243,4.068
								c1.008,0.956,2.953,0.232,3.995-0.247C74.835,61.596,74.332,61.631,74.214,61.686L74.214,61.686z"/>
							<path style="fill:#FFFFFF;" d="M72.298,55.322c-1.132,0.52-2.618,0.909-3.496-0.213c-0.509-0.651-0.466-1.777-0.23-2.508
								c0.602-1.867,3.262-2.576,4.922-1.885c1.729,0.721,1.411,3.304-0.506,3.559c-0.758,0.103-1.614-0.169-2.071-0.8
								c-0.156-0.214-0.18-0.483-0.187-0.737c0.023-0.337,0.17-0.61,0.439-0.819c0.568-0.156,1.136-0.312,1.704-0.466
								c0.494,0.362,0.432,0.732-0.188,1.108c-0.202,0.044-0.476,0.261-0.104,0.181c0.508-0.111,0.932-0.237,1.146-0.759
								c0.217-0.53-0.574-0.88-0.969-0.855c-1.131,0.077-2.766,0.786-2.523,2.149c0.205,1.134,1.911,1.347,2.805,1.161
								c1.215-0.255,2.179-0.928,2.115-2.284c-0.145-3.085-4.911-1.793-6.306-0.599c-1.145,0.982-1.378,2.995-0.244,4.069
								c1.008,0.956,2.952,0.233,3.995-0.247C72.921,55.231,72.416,55.266,72.298,55.322L72.298,55.322z"/>
							<path style="fill:#FFFFFF;" d="M57.683,65.011c-1.132,0.52-2.619,0.908-3.497-0.213c-0.509-0.651-0.468-1.777-0.231-2.508
								c0.603-1.867,3.264-2.576,4.922-1.885c1.73,0.721,1.411,3.304-0.506,3.56c-0.76,0.102-1.614-0.169-2.07-0.801
								c-0.156-0.214-0.181-0.483-0.188-0.737c0.025-0.336,0.171-0.609,0.441-0.819c0.567-0.156,1.135-0.312,1.703-0.465
								c0.494,0.362,0.432,0.731-0.188,1.108c-0.201,0.043-0.476,0.261-0.103,0.18c0.508-0.11,0.93-0.236,1.145-0.759
								c0.219-0.529-0.574-0.881-0.968-0.855c-1.13,0.077-2.767,0.786-2.522,2.149c0.203,1.134,1.91,1.347,2.804,1.16
								c1.215-0.255,2.18-0.927,2.116-2.284c-0.144-3.085-4.912-1.794-6.306-0.599c-1.146,0.982-1.379,2.994-0.246,4.069
								c1.009,0.956,2.953,0.232,3.996-0.247C58.304,64.919,57.801,64.955,57.683,65.011L57.683,65.011z"/>
							<path style="fill:#FFFFFF;" d="M49.946,59.723c1.006,0.292,2.006,0.728,2.597,1.639c0.683,1.056-0.281,2.427-1.171,2.987
								c-1.631,1.027-4.234-0.567-4.991-2.037c-0.339-0.661-0.227-1.378,0.167-1.981c0.78-1.201,2.169-0.461,2.902,0.271
								c0.521,0.518,0.818,1.297,0.511,1.997c-0.363,0.825-1.566,0.416-2.115,0.125c-0.183-0.104-0.334-0.245-0.454-0.422
								c-0.203-0.274-0.199-1.133,0.62-0.669c0.13,0.073,0.557-0.146,0.503-0.177c-0.801-0.454-2.377,0.012-1.536,1.152
								c0.624,0.843,2.23,0.86,3.07,0.387c2.129-1.199-1.382-4.431-3.315-3.214c-1.19,0.751-1.361,2.065-0.574,3.187
								c0.792,1.128,2.248,1.737,3.583,1.841c1.292,0.103,2.357-0.502,3.116-1.51c1.443-1.917-0.879-3.31-2.472-3.772
								C50.268,59.492,49.803,59.682,49.946,59.723L49.946,59.723z"/>
							<path style="fill:#FFFFFF;" d="M65.175,58.482c1.008,0.292,2.007,0.727,2.598,1.639c0.684,1.055-0.281,2.427-1.171,2.987
								c-1.632,1.026-4.236-0.568-4.991-2.037c-0.34-0.661-0.227-1.378,0.167-1.983c0.78-1.199,2.169-0.461,2.902,0.271
								c0.521,0.519,0.817,1.298,0.509,1.998c-0.362,0.823-1.564,0.415-2.115,0.125c-0.183-0.104-0.333-0.245-0.451-0.422
								c-0.205-0.275-0.2-1.133,0.618-0.67c0.131,0.073,0.558-0.146,0.504-0.176c-0.802-0.454-2.378,0.012-1.536,1.152
								c0.624,0.844,2.231,0.86,3.07,0.388c2.129-1.201-1.384-4.431-3.314-3.214c-1.192,0.75-1.362,2.064-0.575,3.187
								c0.792,1.127,2.247,1.736,3.581,1.84c1.292,0.104,2.358-0.502,3.116-1.509c1.444-1.916-0.878-3.31-2.471-3.772
								C65.497,58.25,65.032,58.441,65.175,58.482L65.175,58.482z"/>
							<path style="fill:#FFFFFF;" d="M53.473,55.918c0.73-0.438,1.67-0.833,2.406-0.219c0.527,0.44,0.574,1.416,0.394,2.014
								c-0.408,1.351-2.366,2.105-3.585,1.505c-1.415-0.694-0.537-2.543,0.839-2.546c0.547-0.002,1.063,0.279,1.216,0.819
								c0.098,0.352-0.107,0.63-0.333,0.87c-0.933,0.994-1.89-0.14-0.935-0.459c0.261-0.089,0.013-0.125-0.129-0.077
								c-0.951,0.32-0.703,1.286,0.287,1.1c0.833-0.156,1.913-0.991,1.331-1.895c-0.417-0.647-1.466-0.552-2.094-0.377
								c-0.897,0.251-1.437,0.975-1.191,1.908c0.511,1.945,3.715,0.805,4.548-0.211c0.715-0.873,0.788-2.506-0.395-3.031
								c-0.831-0.371-1.953,0.178-2.65,0.597C53.023,56.012,53.409,55.958,53.473,55.918L53.473,55.918z"/>
							<path style="fill:#FFFFFF;" d="M65.085,54.464c0.73-0.44,1.671-0.834,2.406-0.218c0.527,0.439,0.572,1.415,0.392,2.012
								c-0.406,1.352-2.362,2.105-3.582,1.506c-1.416-0.694-0.538-2.544,0.839-2.546c0.547-0.002,1.061,0.279,1.215,0.819
								c0.099,0.352-0.107,0.63-0.333,0.87c-0.93,0.994-1.888-0.14-0.933-0.459c0.26-0.089,0.012-0.124-0.13-0.078
								c-0.95,0.321-0.702,1.287,0.287,1.101c0.833-0.157,1.914-0.992,1.332-1.896c-0.418-0.647-1.468-0.553-2.095-0.375
								c-0.896,0.251-1.436,0.975-1.191,1.907c0.512,1.945,3.715,0.806,4.548-0.21c0.716-0.873,0.788-2.507-0.394-3.032
								c-0.831-0.37-1.954,0.179-2.65,0.598C64.636,54.556,65.02,54.503,65.085,54.464L65.085,54.464z"/>
							<path style="fill:#FFFFFF;" d="M66.363,48.496c0.73-0.439,1.671-0.833,2.406-0.219c0.527,0.441,0.574,1.416,0.394,2.013
								c-0.407,1.351-2.363,2.106-3.584,1.507c-1.416-0.694-0.536-2.544,0.84-2.546c0.546-0.001,1.061,0.279,1.213,0.819
								c0.099,0.352-0.107,0.628-0.332,0.868c-0.931,0.995-1.889-0.138-0.935-0.459c0.26-0.087,0.012-0.124-0.13-0.074
								c-0.95,0.319-0.702,1.284,0.288,1.099c0.833-0.156,1.913-0.993,1.331-1.895c-0.417-0.649-1.467-0.553-2.094-0.377
								c-0.897,0.25-1.437,0.974-1.191,1.907c0.51,1.945,3.715,0.805,4.548-0.211c0.715-0.873,0.787-2.506-0.396-3.031
								c-0.83-0.37-1.953,0.179-2.649,0.598C65.913,48.589,66.3,48.536,66.363,48.496L66.363,48.496z"/>
							<path style="fill:#FFFFFF;" d="M75.435,46.751c0.728-0.438,1.67-0.832,2.403-0.219c0.528,0.44,0.574,1.414,0.393,2.013
								c-0.407,1.351-2.362,2.107-3.583,1.507c-1.413-0.695-0.537-2.544,0.84-2.546c0.547-0.003,1.061,0.279,1.213,0.817
								c0.1,0.352-0.106,0.63-0.331,0.87c-0.932,0.995-1.889-0.138-0.935-0.461c0.261-0.088,0.012-0.122-0.129-0.075
								c-0.952,0.319-0.703,1.286,0.286,1.099c0.833-0.156,1.914-0.992,1.332-1.894c-0.417-0.65-1.467-0.554-2.094-0.378
								c-0.897,0.252-1.437,0.975-1.192,1.908c0.51,1.944,3.716,0.805,4.547-0.211c0.715-0.873,0.788-2.506-0.393-3.032
								c-0.832-0.369-1.955,0.18-2.651,0.599C74.984,46.843,75.371,46.79,75.435,46.751L75.435,46.751z"/>
							<path style="fill:#FFFFFF;" d="M75.836,54.294c-0.054-0.788-0.039-1.574,0.24-2.322c0.386-1.032,1.295-0.532,1.564,0.194
								c0.386,1.041,0.212,2.424-0.194,3.426c-0.211,0.519-0.776,1.064-1.148,0.354c-0.252-0.482-0.13-1.181-0.022-1.678
								c0.068-0.307,0.495-1.577,0.88-0.898c0.132,0.235,0.146,0.556,0.17,0.816c0.01,0.152,0.006,0.307-0.007,0.461
								c-0.034,0.585-0.354,0.458-0.341,0.007c0.001-0.039-0.304-0.002-0.306,0.082c-0.028,0.967,0.71,0.799,0.919,0.055
								c0.151-0.542,0.128-1.899-0.703-1.755c-1.12,0.194-1.582,3.517-0.255,3.416c1.725-0.132,1.658-3.23,1.315-4.367
								c-0.197-0.65-0.766-1.021-1.434-0.786c-1.132,0.397-1.049,2.136-0.982,3.079C75.535,54.424,75.843,54.371,75.836,54.294
								L75.836,54.294z"/>
							<path style="fill:#FFFFFF;" d="M49.438,67.025c0.592-0.694,2.057-2.25,2.851-1.026c0.216,0.332-0.006,0.809-0.164,1.113
								c-0.502,0.959-1.662,1.995-2.729,2.237c-0.439,0.1-0.845-0.154-0.839-0.61c0.007-0.482,0.539-0.917,0.875-1.185
								c0.318-0.254,1.784-1.023,1.585-0.094c-0.07,0.317-0.368,0.638-0.576,0.863c-0.122,0.128-0.26,0.241-0.41,0.338
								c-0.129-0.004-0.258-0.008-0.389-0.013c0.014-0.239,0.127-0.424,0.345-0.553c0.061-0.053-0.224-0.019-0.276,0.028
								c-0.878,0.786,0.117,0.839,0.7,0.441c0.378-0.26,1.518-1.514,0.533-1.686c-0.92-0.161-3.625,1.648-2.395,2.502
								c0.451,0.313,1.245-0.025,1.657-0.246c0.86-0.462,1.627-1.138,2.154-1.964c0.367-0.575,0.514-1.723-0.483-1.782
								c-1.132-0.064-2.068,0.905-2.739,1.692C49.125,67.097,49.38,67.092,49.438,67.025L49.438,67.025z"/>
							<path style="fill:#FFFFFF;" d="M43.881,63.805c-0.517,0.7-1.904,2.4-2.77,1.236c-0.244-0.328-0.043-0.837,0.104-1.156
								c0.44-0.957,1.366-1.841,2.307-2.296c0.454-0.222,1.073-0.171,1.123,0.425C44.686,62.5,44.16,63,43.843,63.286
								c-0.284,0.259-1.479,1.119-1.576,0.327c-0.032-0.259,0.228-0.598,0.36-0.795c0.13-0.193,0.294-0.361,0.468-0.518
								c0.156-0.033,0.313-0.066,0.472-0.1c0.003,0.24-0.097,0.432-0.305,0.575c-0.059,0.062,0.228,0.024,0.276-0.027
								c0.813-0.833-0.156-0.849-0.72-0.419c-0.315,0.24-1.445,1.71-0.435,1.726c0.878,0.015,3.56-1.808,2.247-2.631
								c-0.481-0.301-1.239,0.09-1.653,0.331c-0.824,0.477-1.544,1.245-2.006,2.075c-0.329,0.591-0.443,1.733,0.546,1.771
								c1.153,0.044,2.043-1.011,2.664-1.852C44.199,63.728,43.934,63.734,43.881,63.805L43.881,63.805z"/>
							<path style="fill:#FFFFFF;" d="M60.143,58.944c-0.82,0.239-1.741,0.454-2.568,0.126c-0.497-0.195-0.628-0.814-0.392-1.245
								c0.551-0.998,2.501-1.06,3.474-0.942c1.119,0.138,1.704,1.249,0.202,1.567c-0.548,0.113-1.174,0.078-1.695-0.128
								c-0.137-0.054-0.246-0.146-0.331-0.268c-0.661-0.951,1.88-0.382,1.46-0.312c-0.119,0.02-0.275,0.141-0.06,0.104
								c0.73-0.121,1.124-0.679,0.119-0.737c-0.51-0.031-1.768,0.23-1.868,0.844c-0.165,1.005,3.289,0.853,3.619-0.194
								c0.505-1.604-3.617-0.847-4.193-0.6c-0.732,0.314-1.566,0.929-0.929,1.79c0.613,0.831,2.419,0.304,3.186,0.079
								C60.342,58.977,60.32,58.893,60.143,58.944L60.143,58.944z"/>
						</g>
					</g>
					<g>
						<path style="fill:#FFA1BE;" d="M84.966,111.42c-14.835,3.06-13.724,7.355-13.724,7.355l0.022,0.051l1.515,3.826
							c-3.883,1.853-6.898,1.55-9.105,0.55l-1.632-5.244c0.631-3.56,0.11-5.979-2.575-5.803c-0.206,0.016-0.419,0.044-0.625,0.095
							l-4.156-8.31c0,0-7.723,9.929-13.363,6.008c-4.5-3.132-4.699-16.731,0.7-15.474c1.368,0.31,3.088,1.575,5.185,4.192
							l5.178-30.206l25.467-6.318c0,0,14.468,20.101,18.02,26.721C99.426,95.483,99.792,108.354,84.966,111.42z"/>
						<g>
							<g>
								<path style="fill:#FFFFFF;" d="M72.475,88.128c0,2.267-2.031,4.107-4.535,4.107c-2.505,0-4.535-1.84-4.535-4.107
									c0-2.267,2.03-4.105,4.535-4.105C70.443,84.023,72.475,85.861,72.475,88.128z"/>
								<path style="fill:#002547;" d="M71.98,89.845c0,0.947-0.858,1.717-1.914,1.717c-1.059,0-1.917-0.77-1.917-1.717
									c0-0.949,0.858-1.717,1.917-1.717C71.123,88.128,71.98,88.896,71.98,89.845z"/>
							</g>
							<g>
								<path style="fill:#FFFFFF;" d="M88.642,85.737c0,2.269-2.031,4.107-4.536,4.107c-2.505,0-4.536-1.839-4.536-4.107
									c0-2.267,2.031-4.106,4.536-4.106C86.61,81.631,88.642,83.47,88.642,85.737z"/>
								<path style="fill:#002547;" d="M84.674,88.128c0,0.947-0.856,1.717-1.915,1.717c-1.057,0-1.914-0.77-1.914-1.717
									c0-0.948,0.857-1.716,1.914-1.716C83.817,86.412,84.674,87.18,84.674,88.128z"/>
							</g>
							<path style="fill:#002547;" d="M63.811,84.861l-3.664-0.305c0.025-0.312,0.309-3.108,2.893-5.033
								c2.26-1.685,5.458-2.096,9.503-1.219l-0.777,3.594c-2.888-0.625-5.13-0.439-6.487,0.542
								C63.982,83.378,63.818,84.8,63.811,84.861z"/>
							<path style="fill:#002547;" d="M85.834,80.277c-1.086-1.594-2.344-2.505-3.739-2.704c-2.455-0.354-4.77,1.478-4.791,1.497
								l-2.333-2.843c0.144-0.117,3.567-2.88,7.648-2.293c2.458,0.352,4.561,1.79,6.254,4.274L85.834,80.277z"/>
							<g>
								<g>
									<path style="fill:#FFFFFF;" d="M72.047,100.979l-4.226,8.991c-2.76,0.902-6.404,1.204-6.994-3.148
										c-0.966-7.145,4.317-12.03,4.317-12.03S63.582,102.24,72.047,100.979z"/>
									<path style="fill:#002547;" d="M64.801,110.875c-0.744,0-1.465-0.125-2.103-0.437c-1.235-0.6-1.98-1.802-2.219-3.571
										c-0.974-7.239,4.376-12.281,4.431-12.331l0.802-0.745l-0.222,1.072c-0.007,0.032-0.627,3.151,1.253,4.823
										c1.585,1.411,4.475,1.457,8.587,0.137l-0.717-2.139l8.584-1.542c-0.086-0.365-0.297-0.963-0.812-1.263
										c-0.555-0.324-1.355-0.247-2.375,0.229l-0.376,0.175l-3.264-11.843l0.676-0.187l3.046,11.057
										c1.071-0.426,1.962-0.438,2.65-0.033c1.087,0.639,1.202,2.063,1.206,2.123l0.022,0.314l-8.436,1.515l0.684,2.037
										l-0.333,0.112c-4.55,1.516-7.783,1.457-9.613-0.173c-1.443-1.286-1.632-3.207-1.587-4.404
										c-1.373,1.613-4.224,5.679-3.512,10.971c0.205,1.522,0.82,2.542,1.831,3.036c2.792,1.36,7.754-1.509,7.805-1.539
										l0.354,0.604C70.992,108.977,67.71,110.874,64.801,110.875z"/>
									<polyline style="fill:#002547;" points="60.856,103.138 65.79,106.178 61.233,101.417 									"/>
								</g>
								
									<rect x="74.395" y="83.317" transform="matrix(0.9947 -0.1031 0.1031 0.9947 -8.7979 8.1862)" style="fill:#002547;" width="0.736" height="11.707"/>
								<path style="fill:#002547;" d="M70.86,94.636c-2.73-2.899-9.219-2.293-11.724,0.67c-4.746,5.614-3.047,13.885,2.555,18.161
									c4.491,3.429,10.907,3.256,15.442,0.111c4.933-3.421,8.092-14.8-0.116-16.257c-0.488-0.086-2.313,0.703-1.758,0.8
									c5.754,1.021,5.093,7.243,3.416,11.294c-2.835,6.84-10.593,6.682-15.704,2.78c-3.321-2.537-4.555-6.577-4.44-10.59
									c0.065-2.191,0.891-4.205,2.109-5.983c1.727-2.52,6.179-2.429,8.208-0.273C69.205,95.73,71.157,94.953,70.86,94.636
									L70.86,94.636z"/>
							</g>
							<path style="fill:#002547;" d="M39.133,105.021c0,0-0.644-6.066,2.043-6.902c2.683-0.841,5.344,1.823,5.793,5.507
								c0.445,3.686-3.968,6.523-4.023,0.018l-1.424,0.532l1.793-1.438c0,0-0.455,4.293,1.663,4.122
								c2.112-0.182,2.1-4.548,0.401-6.547C43.682,98.308,39.678,96.494,39.133,105.021z"/>
						</g>
					</g>
				</g>
				<g>
					<g>
						<path style="fill:#FFA1BE;" d="M82.759,144.207l-0.264,2.927l-0.618,6.751l-0.472,5.215l-8.825,0.859l1.353-8.95
							c0,0-6.221,3.186-5.949-1.772c0.073-1.257,0.559-3.037,1.669-5.517l0.413,0.017l11.245,0.418L82.759,144.207z"/>
						<path style="fill:#002547;" d="M75.729,159.409l-0.724-0.127c0.489-2.781,1.259-10.203-1.026-11.116l0.273-0.684
							C77.502,148.781,75.92,158.324,75.729,159.409z"/>
						<path style="fill:#002547;" d="M78.395,159.186l-0.715-0.175c0.021-0.085,2.045-8.548-1.263-10.889l0.424-0.6
							C80.558,150.149,78.485,158.819,78.395,159.186z"/>
						<path style="fill:#002547;" d="M80.482,159.178l-0.72-0.157c0.596-2.701,1.53-10.003-1.244-11.357l0.323-0.662
							C82.701,148.887,80.574,158.759,80.482,159.178z"/>
					</g>
					<path style="fill:#FF577F;" d="M69.897,143.185l-6.223-19.983l-1.632-5.244c0.631-3.56,0.11-5.979-2.575-5.803
						c-0.206,0.016-0.419,0.044-0.625,0.095c-9.194,2.134-17.519,37.531-17.519,37.531l26.661-0.544
						c0.073-1.257,0.559-3.037,1.669-5.517l0.413,0.017L69.897,143.185z"/>
					<path style="fill:#FFFFFF;" d="M81.311,144.155l-11.245-0.418l-0.169-0.552l-6.223-19.983c2.207,1,5.222,1.302,9.105-0.55
						L81.311,144.155z"/>
					<path style="fill:#FF577F;" d="M106.742,132.33L90.6,150.885l-8.722,3l0.618-6.751l0.264-2.927l-1.448-0.052l-8.532-21.503
						l-1.515-3.826c5.097,2.361,14.334,7.812,21.792,18.703l7.472-12.136l1.595,1.272l1.083,0.853l-0.839,1.427L106.742,132.33z"/>
					<g>
						<path style="fill:#002547;" d="M126.886,129.682l-7.721,12.258l-12.423-9.61l-4.375-3.384l0.839-1.427l3.559-6.06
							c0.882,2.98,3.281,6.046,4.552,5.281c0.816-0.493,0.787-2.75,0.11-5.081L126.886,129.682z"/>
						<path style="fill:#FF577F;" d="M123.453,130.957c0,0.982-0.432,1.778-0.966,1.778c-0.533,0-0.964-0.796-0.964-1.778
							c0-0.982,0.431-1.778,0.964-1.778C123.02,129.179,123.453,129.975,123.453,130.957z"/>
						<polygon style="fill:#33BFE5;" points="119.13,127.598 120.602,128.418 119.13,130.957 117.844,129.277 						"/>
						<polygon style="fill:#33BFE5;" points="116.374,130.346 117.844,131.167 116.374,133.705 115.086,132.025 						"/>
						<polygon style="fill:#33BFE5;" points="114.534,133.581 116.005,134.401 114.534,136.94 113.248,135.26 						"/>
						<polygon style="fill:#33BFE5;" points="116.374,125.331 117.844,126.153 116.374,128.69 115.086,127.011 						"/>
						<polygon style="fill:#33BFE5;" points="113.615,128.08 115.086,128.901 113.615,131.439 112.328,129.76 						"/>
						<polygon style="fill:#33BFE5;" points="111.776,131.314 113.248,132.135 111.776,134.674 110.49,132.994 						"/>
						<polygon style="fill:#33BFE5;" points="113.155,122.927 114.626,123.747 113.155,126.286 111.869,124.606 						"/>
						<polygon style="fill:#33BFE5;" points="110.857,125.675 112.328,126.495 110.857,129.035 109.571,127.354 						"/>
						<polygon style="fill:#33BFE5;" points="109.019,128.909 110.49,129.73 109.019,132.269 107.731,130.588 						"/>
					</g>
					<path style="fill:#FFA1BE;" d="M111.317,126.74c-1.271,0.765-3.67-2.301-4.552-5.281l-3.559,6.06l-1.083-0.853l1.23-3.604
						c0,0-1.471-6.743,2.942-7.11c2.448-0.207,4.294,2.801,5.131,5.707C112.104,123.989,112.133,126.247,111.317,126.74z"/>
					<polygon style="fill:#002547;" points="69.897,143.92 53.053,145.116 60.498,119.43 61.216,119.585 56.151,142.816 
						69.897,143.184 					"/>
				</g>
			</g>
			<g>
				<g>
					<g>
						<path style="fill:#514DFF;" d="M220.185,126.858c0.31-0.141,3.987-1.789,3.163-3.429c-0.831-1.669-5.861,1.663-6.119,1.833
							l18.012-43.496c0,0-11.4-17.665-42.657-15.944c-1.912,0.103-3.766,0.324-5.546,0.646l-13.235,20.387l25.889,32.903
							l14.835,13.947l0,0c0.012,0.129,0.023,0.26,0.034,0.389c2.742,1.001,6.325,2.051,7.2,1.104
							c1.47-1.596-2.575-3.677-2.575-3.677s9.436-0.243,9.061-3.067C227.879,125.718,220.605,126.799,220.185,126.858z"/>
						<path style="opacity:0.2;fill:#FFFFFF;" d="M213.092,101.46c-20.866-9.057-22.391-33.354-22.404-33.599l0.734-0.039
							c0.013,0.24,1.521,24.091,21.963,32.962L213.092,101.46z"/>
						<path style="opacity:0.2;fill:#FFFFFF;" d="M223.125,94.166c-18.375,0-29.096-20.05-29.213-20.269l0.652-0.343
							c0.123,0.235,12.51,23.369,33.314,19.423l0.137,0.723C226.331,94.019,224.699,94.166,223.125,94.166z"/>
						<path style="opacity:0.2;fill:#FFFFFF;" d="M220.527,91.596c-21.665-8.659-18.409-23.989-18.372-24.143l0.716,0.166
							c-0.033,0.148-3.127,14.881,17.929,23.294L220.527,91.596z"/>
					</g>
					<g>
						<path style="fill:#FFA1BE;" d="M205.455,105.934c-0.846,1.088-1.361,3.095-1.64,5.626c-3.2,0.545-8.238,1.323-13.893,1.846
							c-11.605,1.074-25.799,1.081-32.03-4.074c-10.7-8.863,1.722-37.92,29.146-42.863
							C188.716,85.274,200.572,100.425,205.455,105.934z"/>
						<g>
							<g>
								<path style="fill:#FF577F;" d="M186.088,105.044c0,1.725-1.86,3.126-4.152,3.126c-2.292,0-4.152-1.4-4.152-3.126
									c0-1.726,1.86-3.126,4.152-3.126C184.229,101.918,186.088,103.318,186.088,105.044z"/>
								<path style="fill:#002547;" d="M180.362,105.914c-2.032,0-3.915-0.485-4.051-0.521l-0.371-0.097l1.069-3.444
									c-1.511-0.029-5.668-0.223-6.704-1.407c-0.219-0.249-0.312-0.54-0.27-0.842c0.083-0.638,0.417-0.912,0.683-1.029
									c0.723-0.323,1.788,0.171,2.382,0.51l2.707-9.221l0.705,0.209l-2.987,10.168l-0.418-0.286
									c-0.601-0.414-1.648-0.908-2.091-0.709c-0.051,0.022-0.203,0.09-0.251,0.454c-0.01,0.062-0.005,0.146,0.094,0.261
									c0.741,0.846,4.472,1.162,6.65,1.163h0.499l-1.133,3.646c1.275,0.279,5.464,1.031,7.188-0.656
									c0.743-0.729,0.933-1.871,0.567-3.391l0.715-0.173c0.431,1.791,0.172,3.166-0.768,4.088
									C183.563,105.629,181.918,105.914,180.362,105.914z"/>
								<path style="fill:#002547;" d="M183.207,100.324l0.552,0.799h3.801C187.561,101.123,185.72,99.344,183.207,100.324z"/>
							</g>
							<g>
								
									<rect x="191.42" y="93.179" transform="matrix(0.0781 -0.9969 0.9969 0.0781 81.9603 278.921)" style="fill:#002547;" width="0.735" height="3.934"/>
								
									<rect x="189.49" y="93.36" transform="matrix(0.9883 -0.1527 0.1527 0.9883 -12.0629 30.4314)" style="fill:#002547;" width="5.088" height="0.735"/>
								
									<rect x="189.421" y="92.006" transform="matrix(0.955 -0.2965 0.2965 0.955 -18.7723 60.9776)" style="fill:#002547;" width="4.428" height="0.736"/>
								<path style="fill:#FFFFFF;" d="M177.508,97.756c0,0,9.929,2.63,13.545-1.66C194.669,91.806,180.817,85.197,177.508,97.756z"
									/>
								<path style="fill:#002547;" d="M177.862,97.851l-0.71-0.188c1.566-5.948,5.273-7.25,7.344-7.495
									c3.247-0.391,6.186,1.232,7.15,3.023c0.588,1.088,0.477,2.205-0.313,3.141l-0.561-0.474
									c0.746-0.884,0.535-1.749,0.228-2.318c-0.829-1.539-3.521-2.988-6.416-2.643C182.7,91.123,179.319,92.323,177.862,97.851z"
									/>
								<path style="fill:#002547;" d="M183.452,95.608c0,1.453-0.826,2.632-1.844,2.632c-1.018,0-1.844-1.179-1.844-2.632
									c0-1.455,0.826-2.634,1.844-2.634C182.626,92.975,183.452,94.154,183.452,95.608z"/>
							</g>
							<g>
								
									<rect x="162.278" y="89.554" transform="matrix(0.214 -0.9768 0.9768 0.214 38.2423 230.9637)" style="fill:#002547;" width="0.735" height="4.328"/>
								
									<rect x="162.486" y="87.536" transform="matrix(0.439 -0.8985 0.8985 0.439 10.3939 196.8861)" style="fill:#002547;" width="0.736" height="5.168"/>
								
									<rect x="163.859" y="86.6" transform="matrix(0.7771 -0.6293 0.6293 0.7771 -19.2744 123.1367)" style="fill:#002547;" width="0.735" height="4.365"/>
								<path style="fill:#FFFFFF;" d="M171.834,96.629c0,0-6.952,1.06-9.035-3.842C160.714,87.883,171.834,82.7,171.834,96.629z"/>
								<path style="fill:#002547;" d="M172.202,96.629h-0.735c0-6.08-2.105-7.854-3.36-8.369c-1.58-0.65-3.239,0.026-4.183,0.982
									c-0.977,0.99-1.27,2.261-0.786,3.4l-0.677,0.288c-0.606-1.425-0.254-2.996,0.939-4.205c1.344-1.359,3.349-1.818,4.986-1.145
									C169.811,88.165,172.202,90.119,172.202,96.629z"/>
								<path style="fill:#002547;" d="M170.682,93.635c0,1.515-0.826,2.744-1.843,2.744c-1.02,0-1.846-1.229-1.846-2.744
									c0-1.513,0.826-2.74,1.846-2.74C169.856,90.895,170.682,92.122,170.682,93.635z"/>
							</g>
							<polygon style="fill:#514DFF;" points="162.516,82.248 175.179,84.819 162.306,85.919 							"/>
							<polygon style="fill:#514DFF;" points="181.644,79.525 192.033,89.231 179.501,82.514 							"/>
						</g>
					</g>
				</g>
				<g>
					<path style="fill:#FF577F;" d="M165.13,132.99c0,0-16.548-7.538-19.121-1.41c-3.335,7.941,17.283,27.948,41.431,30.521
						c24.146,2.573-0.613-18.018-0.613-18.018L165.13,132.99z"/>
					<g>
						<path style="fill:#FF577F;" d="M175.914,130.846c0,0-16.547-7.538-19.121-1.41c-3.336,7.94,17.282,27.949,41.43,30.522
							c24.147,2.573-0.612-18.019-0.612-18.019L175.914,130.846z"/>
						<path style="fill:#002547;" d="M198.183,160.322c-17.024-1.814-32.938-12.563-39.268-21.757
							c-2.344-3.404-3.268-6.398-2.67-8.656l0.712,0.189c-0.534,2.014,0.377,4.874,2.565,8.051
							c6.236,9.058,21.933,19.652,38.74,21.443L198.183,160.322z"/>
					</g>
				</g>
				<g>
					<g>
						<path style="fill:#FFA1BE;" d="M182.617,123.553l-5.109-8.336c0,0-7.6,4.658-13.115,2.82
							c-5.516-1.839-4.536-10.42-4.536-10.42h11.978v4.526c0,0,15.602-1.34,14.989,8.344"/>
						<path style="fill:#002547;" d="M187.189,120.512l-0.732-0.047c0.125-1.987-0.465-3.636-1.756-4.896
							c-3.861-3.777-12.746-3.065-12.836-3.058l-0.398,0.035v-4.56h-11.61v-0.735h12.345v4.501c1.835-0.106,9.35-0.293,13.014,3.289
							C186.666,116.459,187.331,118.299,187.189,120.512z"/>
						<path style="fill:#002547;" d="M171.55,116.861c-0.171-0.209-4.184-5.169-2.788-9.359l0.698,0.232
							c-1.267,3.802,2.618,8.612,2.658,8.659L171.55,116.861z"/>
						<path style="fill:#002547;" d="M167.882,117.604c-0.169-0.195-4.134-4.827-2.054-10.12l0.684,0.269
							c-1.919,4.883,1.886,9.324,1.924,9.367L167.882,117.604z"/>
						<path style="fill:#002547;" d="M164.894,117.6c-0.194-0.232-4.722-5.709-1.979-10.173l0.627,0.384
							c-2.468,4.019,1.87,9.264,1.915,9.315L164.894,117.6z"/>
					</g>
					<path style="fill:#9B7BFF;" d="M187.56,141.939l-10.052-20.348l10.909-6.374l4.535,13.961l5.063,2.219
						C198.015,131.398,196.327,143.902,187.56,141.939z"/>
					<g>
						<path style="fill:#FFA1BE;" d="M185.79,133.418l-1.301,4.882c-6.392,6.26-8.944-2.249-8.944-2.249l-3.31,6.626l-9.436-7.105
							c2.082-7.112,10.053-7.73,10.053-7.73L185.79,133.418z"/>
						<path style="fill:#002547;" d="M170.759,141.333l-0.731-0.086c0.044-0.378,1.131-9.243,5.979-8.868l-0.061,0.733
							C171.829,132.788,170.768,141.247,170.759,141.333z"/>
						<path style="fill:#002547;" d="M167.641,139.538c-0.018-0.145-0.411-3.558,1.537-5.968c1.055-1.306,2.589-2.058,4.559-2.235
							l0.066,0.732c-1.763,0.158-3.125,0.819-4.051,1.961c-1.754,2.166-1.386,5.387-1.382,5.42L167.641,139.538z"/>
						<path style="fill:#002547;" d="M164.812,137.42c-0.019-0.116-0.434-2.844,1.232-5.08c1.092-1.462,2.81-2.356,5.105-2.656
							l0.094,0.729c-2.087,0.273-3.636,1.067-4.605,2.362c-1.481,1.98-1.104,4.503-1.1,4.528L164.812,137.42z"/>
					</g>
					<g>
						<path style="fill:#9B7BFF;" d="M215.384,146.472c0,0-16.18,10.546-33.588,1.963l2.692-10.135l1.301-4.882l6.848,2.178
							l1.911-2.848l-6.988-5.516c2.082-4.538,6.333-6.965,6.333-6.965l-3.971-6.861c5.655-0.523,10.693-1.301,13.893-1.846
							c0.279-2.531,0.794-4.538,1.64-5.626c0.412-0.531,0.897-0.839,1.47-0.89c4.318-0.39,6.575,16.702,7.635,29.05
							C215.163,141.03,215.384,146.472,215.384,146.472z"/>
						<path style="fill:#002547;" d="M192.942,135.801l-0.611-0.41l1.722-2.565l-6.946-5.485l0.121-0.262
							c1.799-3.923,5.126-6.273,6.168-6.938l-3.791-6.551l0.636-0.369l4.157,7.183l-0.321,0.182c-0.04,0.023-4.01,2.333-6.057,6.539
							l7.024,5.545L192.942,135.801z"/>
						<polygon style="fill:#002547;" points="182.582,146.998 181.872,146.811 185.532,132.951 206.027,139.344 204.046,113.407 
							204.779,113.352 206.844,140.368 186.047,133.882 						"/>
						<polygon style="fill:#002547;" points="194.647,127.786 194.014,127.411 198.178,120.341 195.127,113.28 195.803,112.988 
							199.001,120.392 						"/>
					</g>
				</g>
			</g>
		</g>
		<g>
			<polygon style="fill:#002547;" points="55.239,147.884 211.89,144.207 200.675,228.415 67.373,229.519 			"/>
			<polygon style="fill:#33BFE5;" points="171.808,218.855 93.115,219.773 87.598,178.037 177.508,175.463 			"/>
			<polyline style="fill:#002547;" points="130.439,246.45 123.084,208.007 144.781,208.007 138.345,246.45 			"/>
			<polygon style="fill:#002547;" points="115.729,243.676 154.157,243.676 151.399,250.111 118.488,250.111 			"/>
			<polygon style="fill:#33BFE5;" points="68.915,228.094 59.387,151.277 59.792,151.268 206.845,147.444 206.802,147.86 
				198.589,227.266 197.856,227.191 206.027,148.201 60.217,151.991 69.645,228.002 			"/>
			<path style="fill:#33BFE5;" d="M86.516,203.226H74.685l-5.818-44.448l15.078-1.774L86.516,203.226z M75.33,202.492h10.41
				l-2.486-44.668l-13.561,1.598L75.33,202.492z"/>
			<path style="fill:#33BFE5;" d="M189.22,201.204h-9.857l3.874-46.884h13.656L189.22,201.204z M180.163,200.469h8.431l7.434-45.414
				h-12.114L180.163,200.469z"/>
			<path style="fill:#002547;" d="M97.138,217.33l-4.004-36.283l79.109-1.285l-3.751,36.33L97.138,217.33z M93.954,181.77
				l3.84,34.812l70.033-1.214l3.599-34.856L93.954,181.77z"/>
			
				<rect x="69.69" y="161.568" transform="matrix(0.9985 -0.0544 0.0544 0.9985 -8.6992 4.4177)" style="fill:#33BFE5;" width="14.149" height="0.735"/>
			<rect x="74.443" y="198.178" style="fill:#33BFE5;" width="11.444" height="0.736"/>
			<rect x="73.886" y="193.912" style="fill:#33BFE5;" width="11.764" height="0.735"/>
			
				<rect x="72.487" y="181.534" transform="matrix(0.9993 -0.0384 0.0384 0.9993 -6.9322 3.1595)" style="fill:#33BFE5;" width="12.466" height="0.737"/>
			<rect x="71.265" y="172.58" style="fill:#33BFE5;" width="13.199" height="0.736"/>
			<rect x="71.634" y="176.719" style="fill:#33BFE5;" width="12.83" height="0.734"/>
			<polygon style="fill:#33BFE5;" points="72.945,187.229 72.883,186.496 85.148,185.449 85.211,186.182 			"/>
			
				<rect x="79.026" y="184.262" transform="matrix(0.0093 -1 1 0.0093 -111.6364 267.9222)" style="fill:#33BFE5;" width="0.736" height="12.077"/>
			
				<rect x="70.595" y="168.72" transform="matrix(1 -0.0093 0.0093 1 -1.5612 0.7236)" style="fill:#33BFE5;" width="13.65" height="0.735"/>
			
				<rect x="70.587" y="165.059" transform="matrix(0.9987 -0.0516 0.0516 0.9987 -8.4394 4.2079)" style="fill:#33BFE5;" width="13.251" height="0.735"/>
			
				<rect x="183.241" y="158.057" transform="matrix(0.9992 -0.0399 0.0399 0.9992 -6.1689 7.6883)" style="fill:#33BFE5;" width="12.654" height="0.734"/>
			
				<rect x="184.453" y="192.603" transform="matrix(0.0549 -0.9985 0.9985 0.0549 -22.3848 371.0668)" style="fill:#33BFE5;" width="0.734" height="9.51"/>
			<rect x="181.796" y="179.453" style="fill:#33BFE5;" width="10.551" height="0.735"/>
			
				<rect x="182.888" y="162.574" transform="matrix(0.9999 -0.0113 0.0113 0.9999 -1.8247 2.1408)" style="fill:#33BFE5;" width="12.233" height="0.736"/>
			
				<rect x="184.826" y="188.835" transform="matrix(0.1271 -0.9919 0.9919 0.1271 -30.4301 352.7465)" style="fill:#33BFE5;" width="0.735" height="9.653"/>
			
				<rect x="182.471" y="167.192" transform="matrix(0.9981 -0.0611 0.0611 0.9981 -9.8791 11.823)" style="fill:#33BFE5;" width="12.089" height="0.736"/>
			
				<rect x="185.425" y="183.859" transform="matrix(0.0714 -0.9974 0.9974 0.0714 -15.8696 360.7216)" style="fill:#33BFE5;" width="0.736" height="10.05"/>
			
				<rect x="185.978" y="179.196" transform="matrix(0.0581 -0.9983 0.9983 0.0581 -8.5685 359.7287)" style="fill:#33BFE5;" width="0.736" height="10.419"/>
			
				<rect x="181.795" y="175.818" transform="matrix(1 -0.0099 0.0099 1 -1.7371 1.8658)" style="fill:#33BFE5;" width="11.154" height="0.735"/>
			<polygon style="fill:#33BFE5;" points="193.602,172.467 182.149,172.214 182.167,171.48 193.62,171.731 			"/>
		</g>
	</g>
	<g>
		<g>
			<path style="fill:#FFC931;" d="M443.726,333.739c-5.138,4.246-11.759,6.801-18.974,6.801c-16.362,0-29.629-13.122-29.629-29.303
				c0-15.554,12.248-28.266,27.717-29.234c-6.515,5.369-10.655,13.461-10.655,22.5c0,16.19,13.27,29.305,29.62,29.305
				C442.449,333.808,443.092,333.786,443.726,333.739z"/>
			<path style="fill:#002547;" d="M353.52,346.523l63.702-2.143c0,0,1.603-36.826-28.501-14.893c0,0,0.319-14.568-8.328-14.249
				c-8.646,0.319-15.05,18.895-15.05,18.895s-3.202-7.368-7.366-6.085c-4.164,1.28-0.962,9.287-0.962,9.287
				s-8.968-7.368-11.211-4.164C343.564,336.374,353.52,346.523,353.52,346.523z"/>
			<path style="fill:#002547;" d="M419.388,373.661l51.315,11.237c0,0,11.985-26.219-9.741-14.982c0,0,3.746-13.11-1.871-14.609
				c-5.62-1.495-16.856,6.369-16.856,6.369s-0.373-13.338-5.617-14.349c-5.244-1.009-7.115,18.786-7.115,18.786
				S411.896,356.059,419.388,373.661z"/>
		</g>
		<path style="fill:#FFC931;" d="M478.789,429.141c0,13.536-52.097,24.508-116.362,24.508c-64.263,0-116.359-10.972-116.359-24.508
			c0-13.538,52.096-24.511,116.359-24.511C426.692,404.63,478.789,415.603,478.789,429.141z"/>
		<g>
			<g>
				<polygon style="fill:#002547;" points="267.39,421.808 281.171,386.817 286.63,385.771 289.232,423.488 283.77,423.488 
					285.33,390.726 281.432,390.726 272.331,421.808 				"/>
				<polygon style="fill:#002547;" points="272.055,417.585 271.565,416.103 283.965,411.996 274.448,403.16 286.385,397.273 
					287.074,398.673 277.168,403.56 286.959,412.648 				"/>
				<polygon style="fill:#002547;" points="286.264,420.732 272.601,410.56 285.358,403.758 277.799,397.225 278.82,396.045 
					288.1,404.065 275.507,410.779 287.195,419.482 				"/>
			</g>
			<g>
				<polygon style="fill:#002547;" points="318.539,408.52 332.321,373.529 337.782,372.484 340.382,410.2 334.921,410.2 
					336.482,377.438 332.581,377.438 323.48,408.52 				"/>
				<polygon style="fill:#002547;" points="337.572,405.871 324.431,394.291 335.617,388.918 327.862,382.384 328.868,381.19 
					338.47,389.279 327.228,394.677 338.602,404.701 				"/>
				<polygon style="fill:#002547;" points="322.405,405.31 321.649,403.947 336.241,395.877 326.564,387.973 336.78,382.653 
					337.501,384.035 329.386,388.261 339.014,396.125 				"/>
			</g>
			<polygon style="fill:#FFA1BE;" points="349.967,377.983 255.689,405.285 243.987,321.3 354.239,299.457 			"/>
			<polygon style="fill:#002547;" points="259.343,404.165 248.297,322.526 353.955,302.945 353.927,305.195 248.932,323.672 
				261.019,403.358 			"/>
			<polygon style="fill:#002547;" points="258.939,355.359 254.647,326.526 350.791,308.168 348.842,335.079 			"/>
			<path style="fill:#002547;" d="M265.109,398.891l-5.78-40.8l86.512-20.029l0.075,40.198L265.109,398.891z M261.182,359.164
				l5.364,38.079l77.617-20.332l0.115-35.993L261.182,359.164z"/>
		</g>
		<g>
			<g>
				<path style="fill:#FF577F;" d="M364.372,409.186l-3.895-16.901l17.421,2.593c0,0-1.3-21.575,27.564-18.456l-3.64,20.821
					l28.344,4.863l-3.901,15.141L364.372,409.186z"/>
				<path style="fill:#33BFE5;" d="M380.24,395.534c0,0,1.756-21.06,22.719-16.674l-4.775,19.113L380.24,395.534z"/>
				<polygon style="fill:#002547;" points="398.477,398.406 380.188,395.922 380.292,395.147 397.888,397.538 402.581,378.766 
					403.338,378.955 				"/>
				<polyline style="fill:#002547;" points="400.62,396.681 431.215,400.981 430.898,405.285 400.62,399.435 400.62,397.243 				"/>
				<polygon style="fill:#002547;" points="379.168,410.718 378.388,396.043 379.168,396 379.947,410.675 				"/>
				
					<rect x="392.119" y="404.802" transform="matrix(0.2052 -0.9787 0.9787 0.2052 -79.0421 713.0543)" style="fill:#002547;" width="14.756" height="0.78"/>
				<polygon style="fill:#002547;" points="362.427,405.968 428.603,415.5 426.718,418.936 363.467,410.2 				"/>
				<path style="fill:#002547;" d="M368.729,409.456l-0.766-0.149c1.042-5.314,0.532-9.221-1.524-11.619
					c-2.162-2.522-5.316-2.425-5.35-2.422l-0.031-0.78c0.146-0.01,3.568-0.111,5.972,2.696
					C369.249,399.767,369.821,403.897,368.729,409.456z"/>
				
					<rect x="363.63" y="394.826" transform="matrix(0.974 -0.2265 0.2265 0.974 -81.564 92.9011)" style="fill:#002547;" width="0.78" height="14.055"/>
				
					<rect x="364.891" y="395.362" transform="matrix(0.9824 -0.187 0.187 0.9824 -68.7567 75.413)" style="fill:#002547;" width="0.78" height="13.456"/>
				
					<rect x="366.282" y="396.639" transform="matrix(0.9934 -0.115 0.115 0.9934 -43.8801 44.8432)" style="fill:#002547;" width="0.78" height="12.098"/>
				
					<rect x="383.993" y="384.951" transform="matrix(0.9011 -0.4336 0.4336 0.9011 -128.477 207.377)" style="fill:#FFFFFF;" width="12.775" height="0.779"/>
				
					<rect x="381.042" y="388.026" transform="matrix(0.8821 -0.471 0.471 0.8821 -136.8479 229.9926)" style="fill:#FFFFFF;" width="20.113" height="0.78"/>
			</g>
			<g>
				<path style="fill:#9B7BFF;" d="M338.897,417.767l-1.302-20.034c0,0,58.506-7.267,53.564,34.336l-80.865-3.639l-1.822-15.373
					L338.897,417.767z"/>
				<polygon style="fill:#33BFE5;" points="341.141,418.256 340.382,399.823 354.028,400.8 356.839,418.936 				"/>
				<polygon style="fill:#33BFE5;" points="359.374,418.936 356.839,401.289 373.706,404.115 373.706,420.108 				"/>
				<path style="fill:#33BFE5;" d="M376.438,420.108v-14.823c0,0,11.796,3.998,10.529,15.601L376.438,420.108z"/>
				<polygon style="fill:#002547;" points="357.297,419.346 341.121,418.644 341.154,417.863 356.378,418.525 353.644,401.351 
					354.411,401.228 				"/>
				<polygon style="fill:#002547;" points="374.097,420.529 359.341,419.326 359.404,418.549 373.316,419.684 373.316,404.115 
					374.097,404.115 				"/>
				<path style="fill:#002547;" d="M387.294,421.302l-10.887-0.806l0.06-0.777l10.161,0.752c0.185-1.877,0.401-10.477-10.336-14.824
					l0.29-0.724c12.433,5.031,10.788,15.918,10.771,16.029L387.294,421.302z"/>
				<path style="fill:#002547;" d="M323.605,426.14c1.418,3.608,0.92,7.181-1.11,7.978c-2.03,0.797-4.825-1.484-6.241-5.093
					c-1.415-3.61-0.917-7.182,1.113-7.978C319.397,420.248,322.19,422.528,323.605,426.14z"/>
				<path style="fill:#002547;" d="M385.423,428.738c1.415,3.609,0.917,7.185-1.113,7.978c-2.03,0.796-4.823-1.484-6.238-5.093
					c-1.418-3.61-0.92-7.182,1.11-7.977C381.212,422.85,384.007,425.13,385.423,428.738z"/>
				<polygon style="fill:#002547;" points="308.473,425.274 317.833,427.583 318.539,430.183 309.155,429.663 				"/>
				<polyline style="fill:#002547;" points="322.027,427.583 379.754,430.183 380.24,432.491 323.003,430.036 				"/>
				<polygon style="fill:#002547;" points="383.066,430.036 392.039,429.141 391.458,433.368 383.066,432.068 				"/>
				<path style="fill:#002547;" d="M327.463,420.563c-8.786,0-17.594-2.772-18.135-2.944l0.238-0.742
					c0.191,0.061,19.265,6.057,29.14,0.548l0.381,0.684C335.809,419.934,331.636,420.563,327.463,420.563z"/>
				
					<rect x="340.461" y="410.501" transform="matrix(0.5338 -0.8456 0.8456 0.5338 -186.3958 483.6731)" style="fill:#FFFFFF;" width="10.036" height="0.781"/>
				
					<rect x="342.399" y="409.235" transform="matrix(0.5246 -0.8514 0.8514 0.5246 -182.881 491.7526)" style="fill:#FFFFFF;" width="12.935" height="0.78"/>
				
					<rect x="362.246" y="409.429" transform="matrix(0.5572 -0.8304 0.8304 0.5572 -178.6814 484.5544)" style="fill:#FFFFFF;" width="5.515" height="0.78"/>
				
					<rect x="360.076" y="411.233" transform="matrix(0.6342 -0.7732 0.7732 0.6342 -184.1857 433.9431)" style="fill:#FFFFFF;" width="12.864" height="0.781"/>
				
					<rect x="377.673" y="412.622" transform="matrix(0.575 -0.8181 0.8181 0.575 -176.2995 486.6252)" style="fill:#FFFFFF;" width="5.177" height="0.782"/>
				<polygon style="fill:#FFFFFF;" points="379.087,418.49 378.466,418.02 382.367,412.852 382.988,413.322 				"/>
				
					<rect x="340.37" y="418.924" transform="matrix(0.9977 -0.0681 0.0681 0.9977 -28.1224 24.1968)" style="fill:#002547;" width="0.78" height="11.124"/>
				<polygon style="fill:#002547;" points="358.984,431.012 357.878,418.972 358.655,418.901 359.762,430.939 				"/>
				<polygon style="fill:#002547;" points="374.094,431.017 373.318,430.932 374.521,420.064 375.297,420.148 				"/>
			</g>
			<g>
				<path style="fill:#514DFF;" d="M457.987,434.377l-63.185-7.576c0,0-3.382-19.437,17.94-6.435l6.632-25.481
					c0,0,36.273-1.3,28.21,28.604l13.782,1.353L457.987,434.377z"/>
				<path style="fill:#002547;" d="M407.06,426.248c1.309,3.337,0.849,6.636-1.028,7.375c-1.876,0.735-4.459-1.375-5.769-4.707
					c-1.307-3.339-0.846-6.641,1.03-7.375C403.17,420.806,405.75,422.911,407.06,426.248z"/>
				<path style="fill:#002547;" d="M454.213,432.033c1.31,3.339,0.851,6.638-1.025,7.377c-1.876,0.735-4.459-1.375-5.769-4.709
					c-1.309-3.337-0.849-6.639,1.03-7.376C450.323,426.591,452.906,428.698,454.213,432.033z"/>
				<path style="fill:#33BFE5;" d="M416.515,420.886l4.681-23.643c0,0,17.159,0.371,7.278,24.553L416.515,420.886z"/>
				<path style="fill:#33BFE5;" d="M432.636,421.796l2.339-18.721c0,0,15.339,0.133,10.4,20.413L432.636,421.796z"/>
				<path style="fill:#002547;" d="M428.729,422.209l-12.246-0.933l0.06-0.778l11.678,0.889c3.488-8.643,3.876-15.131,1.156-19.275
					c-2.829-4.313-8.139-4.476-8.191-4.476l0.017-0.78c0.233,0.005,5.775,0.175,8.826,4.828c2.896,4.416,2.495,11.231-1.193,20.261
					L428.729,422.209z"/>
				<path style="fill:#002547;" d="M445.673,423.92l-13.09-1.736l0.104-0.773l12.39,1.643c1.593-6.779,1.05-11.955-1.616-15.379
					c-3.207-4.116-8.438-4.209-8.488-4.209l0.005-0.779c0.229,0.002,5.662,0.099,9.098,4.509c2.866,3.682,3.432,9.194,1.678,16.384
					L445.673,423.92z"/>
				<polygon style="fill:#002547;" points="430.003,431.053 429.237,430.901 430.835,422.89 431.598,423.044 				"/>
				
					<rect x="409.267" y="423.478" transform="matrix(0.1053 -0.9944 0.9944 0.1053 -51.9965 789.9414)" style="fill:#002547;" width="7.47" height="0.779"/>
				
					<rect x="441.087" y="428.268" transform="matrix(0.1236 -0.9923 0.9923 0.1236 -35.1643 817.4985)" style="fill:#002547;" width="8.324" height="0.78"/>
				<polygon style="fill:#002547;" points="394.022,424.527 459.417,433.368 458.637,436.877 449.927,435.317 406.762,429.141 
					394.022,427.728 				"/>
				
					<rect x="416.728" y="410.306" transform="matrix(0.69 -0.7238 0.7238 0.69 -165.7643 434.3711)" style="fill:#FFFFFF;" width="14.938" height="0.78"/>
				
					<rect x="423.037" y="412.023" transform="matrix(0.6665 -0.7455 0.7455 0.6665 -165.3822 455.1397)" style="fill:#FFFFFF;" width="5.938" height="0.78"/>
				
					<rect x="433.225" y="412.817" transform="matrix(0.6996 -0.7146 0.7146 0.6996 -163.685 437.0943)" style="fill:#FFFFFF;" width="9.481" height="0.78"/>
				<polygon style="fill:#FFFFFF;" points="435.324,420.373 434.755,419.839 443.435,410.623 444.002,411.159 				"/>
			</g>
		</g>
	</g>
	<g>
		<path style="fill:#FFC931;" d="M473.188,190.784c0,33.174-47.049,60.068-105.088,60.068c-58.038,0-105.085-26.894-105.085-60.068
			c0-33.175,47.047-60.067,105.085-60.067C426.14,130.717,473.188,157.609,473.188,190.784z"/>
		<g>
			<g>
				<polygon style="fill:#FF577F;" points="338.273,192.588 333.715,161.531 363.994,162.526 359.109,194.919 				"/>
				<polygon style="fill:#FFA1BE;" points="362.609,171.689 361.563,178.635 361.563,178.642 337.654,188.37 336.692,181.852 				
					"/>
				<polygon style="fill:#33BFE5;" points="363.155,168.047 362.829,170.243 336.459,180.251 336.208,178.501 				"/>
				<polygon style="fill:#33BFE5;" points="361.345,180.096 360.993,182.423 338.077,191.253 337.81,189.44 				"/>
			</g>
			<g>
				<path style="fill:#33BFE5;" d="M332.153,159.773l33.402,1.758v2.93c0,0-19.337,4.884-33.402-2.343V159.773z"/>
				
					<rect x="347.844" y="158.851" transform="matrix(0.0442 -0.999 0.999 0.0442 170.64 503.0934)" style="fill:#002547;" width="0.783" height="7.04"/>
				<path style="fill:#002547;" d="M352.63,164.536c-11.126,0-19.931-3.832-20.049-3.884l0.316-0.715
					c0.158,0.071,16.013,6.964,31.957,2.061l0.229,0.746C360.832,164.052,356.583,164.536,352.63,164.536z"/>
				<polygon style="fill:#002547;" points="346.989,162.448 344.643,150.858 355.935,148.47 356.423,150.762 347.4,152.67 
					349.286,161.982 				"/>
			</g>
		</g>
		<g>
			<path style="fill:#002547;" d="M402.413,180.143c-0.403,0.723,26.522,36.917,26.522,36.917l28.56-10.743l-20.899-39.456
				C436.596,166.861,411.398,164.126,402.413,180.143z"/>
			<polygon style="fill:#FFFFFF;" points="429.81,214.407 404.441,179.002 405.074,178.546 430.093,213.461 455.401,203.802 
				455.683,204.534 			"/>
			<path style="fill:#FF577F;" d="M436.499,171.695c0,1.483-1.902,2.686-4.249,2.686c-2.347,0-4.249-1.203-4.249-2.686
				c0-1.483,1.902-2.686,4.249-2.686C434.597,169.009,436.499,170.212,436.499,171.695z"/>
			<polygon style="fill:#FFC931;" points="416.28,183.605 421.748,181.261 423.114,184.973 418.136,186.339 			"/>
			<polygon style="fill:#FFC931;" points="423.114,181.065 428.585,178.722 429.953,182.434 424.972,183.8 			"/>
			<polygon style="fill:#FFC931;" points="430.147,178.526 435.617,176.182 436.983,179.894 432.002,181.261 			"/>
			<polygon style="fill:#FFC931;" points="419.601,188.685 425.071,186.339 426.436,190.051 421.455,191.419 			"/>
			<polygon style="fill:#FFC931;" points="426.436,186.144 431.905,183.8 433.273,187.512 428.292,188.879 			"/>
			<polygon style="fill:#FFC931;" points="433.47,183.605 438.938,181.261 440.304,184.973 435.324,186.339 			"/>
			<polygon style="fill:#FFC931;" points="422.921,194.064 428.389,191.721 429.757,195.431 424.775,196.799 			"/>
			<polygon style="fill:#FFC931;" points="429.757,191.526 435.226,189.182 436.594,192.892 431.612,194.259 			"/>
			<polygon style="fill:#FFC931;" points="436.79,188.987 442.258,186.642 443.626,190.354 438.645,191.721 			"/>
			<polygon style="fill:#33BFE5;" points="408.271,178.306 410.226,181.261 416.673,178.776 414.721,175.259 			"/>
			<polygon style="fill:#FFA1BE;" points="425.461,202.214 429.757,200.554 430.932,202.214 426.436,204.069 			"/>
			<polygon style="fill:#FFA1BE;" points="431.516,199.969 435.809,198.308 436.983,199.969 432.489,201.823 			"/>
			<polygon style="fill:#FFA1BE;" points="437.473,197.612 441.769,195.951 442.943,197.612 438.446,199.467 			"/>
			<polygon style="fill:#FFA1BE;" points="443.626,195.313 447.92,193.651 449.095,195.313 444.6,197.168 			"/>
			<polygon style="fill:#FFA1BE;" points="427.611,205.665 431.905,204.007 433.08,205.665 428.585,207.52 			"/>
			<polygon style="fill:#FFA1BE;" points="433.663,203.419 437.96,201.759 439.132,203.419 434.637,205.274 			"/>
			<polygon style="fill:#FFA1BE;" points="439.621,201.064 443.917,199.403 445.092,201.064 440.597,202.919 			"/>
			<polygon style="fill:#FFA1BE;" points="445.774,198.763 450.068,197.103 451.242,198.763 446.748,200.619 			"/>
			<polygon style="fill:#FFA1BE;" points="429.953,208.629 434.247,206.969 435.422,208.629 430.927,210.484 			"/>
			<polygon style="fill:#FFA1BE;" points="436.005,206.382 440.302,204.723 441.476,206.382 436.978,208.238 			"/>
			<polygon style="fill:#FFA1BE;" points="441.963,204.026 446.259,202.366 447.431,204.026 442.936,205.882 			"/>
			<polygon style="fill:#FFA1BE;" points="448.116,201.727 452.41,200.066 453.584,201.727 449.09,203.581 			"/>
		</g>
		<g>
			<polygon style="fill:#002547;" points="373.31,142.639 369.793,125.06 383.076,125.06 377.802,142.639 390.692,141.077 
				390.692,146.546 364.325,146.546 361.395,141.077 			"/>
			<polygon style="fill:#002547;" points="432.493,132.286 317.249,127.208 309.047,45.952 442.847,44.194 			"/>
			<polygon style="fill:#33BFE5;" points="430.151,128.575 320.18,125.06 313.343,49.468 437.769,47.905 			"/>
			<path style="fill:#FFFFFF;" d="M375.107,116.925c-5.449,0-10.773-1.529-15.396-4.418c-6.664-4.167-11.279-10.722-12.997-18.454
				c-1.716-7.729-0.331-15.715,3.901-22.482c5.544-8.869,15.036-14.163,25.39-14.163c5.447,0,10.771,1.528,15.393,4.419
				c6.663,4.166,11.278,10.719,12.997,18.452c1.715,7.73,0.33,15.713-3.902,22.481C394.951,111.63,385.461,116.925,375.107,116.925z
				 M376.006,58.189c-10.084,0-19.328,5.157-24.728,13.796c-4.124,6.592-5.471,14.369-3.8,21.899
				c1.673,7.528,6.165,13.903,12.647,17.96c4.5,2.812,9.68,4.299,14.982,4.299c10.081,0,19.326-5.157,24.726-13.797
				c4.124-6.592,5.471-14.369,3.8-21.898c-1.671-7.526-6.163-13.904-12.647-17.958C386.486,59.677,381.306,58.189,376.006,58.189z"
				/>
			<path style="fill:#FFFFFF;" d="M375.185,111.77c-4.507,0-8.906-1.263-12.73-3.653c-5.508-3.444-9.324-8.863-10.745-15.255
				c-1.42-6.394-0.273-12.995,3.227-18.59c4.582-7.332,12.43-11.709,20.989-11.709c4.506,0,8.906,1.263,12.73,3.653
				c11.369,7.11,14.746,22.293,7.519,33.845C391.593,107.393,383.745,111.77,375.185,111.77z M375.926,63.345
				c-8.288,0-15.888,4.239-20.328,11.342c-3.389,5.42-4.499,11.813-3.124,18.004c1.373,6.187,5.066,11.43,10.395,14.764
				c3.698,2.312,7.957,3.534,12.316,3.534c8.287,0,15.888-4.241,20.33-11.343c6.992-11.186,3.728-25.886-7.273-32.767
				C384.544,64.567,380.285,63.345,375.926,63.345z"/>
			
				<rect x="375.266" y="38.701" transform="matrix(0.0264 -0.9997 0.9997 0.0264 277.7565 461.2148)" style="fill:#FFFFFF;" width="0.781" height="98.624"/>
			<polygon style="opacity:0.3;fill:#FFFFFF;" points="408.664,50.314 375.946,50.314 376.389,88.24 			"/>
			
				<rect x="375.996" y="50.312" transform="matrix(0.9999 -0.0117 0.0117 0.9999 -1.0013 4.4008)" style="fill:#FFFFFF;" width="0.782" height="75.271"/>
			<g>
				<polygon style="fill:#002547;" points="317.835,52.657 330.466,52.006 334.635,123.888 326.236,123.367 				"/>
				
					<rect x="323.567" y="52.321" transform="matrix(0.9936 -0.1131 0.1131 0.9936 -7.8761 37.207)" style="fill:#FFFFFF;" width="0.782" height="71.384"/>
				
					<rect x="329.946" y="51.93" transform="matrix(0.9979 -0.0652 0.0652 0.9979 -5.0244 21.7101)" style="fill:#FFFFFF;" width="0.781" height="71.913"/>
				
					<rect x="320.894" y="60.486" transform="matrix(0.995 -0.0999 0.0999 0.995 -4.4584 32.7611)" style="fill:#FFFFFF;" width="7.673" height="0.781"/>
				<polygon style="fill:#FFFFFF;" points="321.966,70.65 321.907,69.87 329.121,69.336 329.181,70.116 				"/>
				
					<rect x="327.103" y="115.151" transform="matrix(0.9988 -0.0488 0.0488 0.9988 -5.2469 16.2273)" style="fill:#FFFFFF;" width="5.034" height="0.781"/>
				<polygon style="fill:#FFFFFF;" points="326.267,108.409 326.205,107.63 331.593,107.212 331.654,107.992 				"/>
				<rect x="324.024" y="88.207" style="fill:#FFFFFF;" width="6.358" height="0.781"/>
				<polygon style="fill:#FFFFFF;" points="329.767,79.754 322.93,79.494 322.958,78.713 329.795,78.973 				"/>
				<polygon style="fill:#FFFFFF;" points="325.128,98.367 325.057,97.59 330.927,97.066 330.998,97.845 				"/>
			</g>
			<g>
				<polygon style="fill:#002547;" points="416.412,126.232 420.969,50.965 433.34,50.965 425.331,126.232 				"/>
				
					<rect x="383.01" y="88.207" transform="matrix(0.0594 -0.9982 0.9982 0.0594 307.2939 503.3058)" style="fill:#FFFFFF;" width="75.396" height="0.781"/>
				<polygon style="fill:#FFFFFF;" points="424.482,126.271 423.705,126.194 430.998,50.928 431.775,51.004 				"/>
				
					<rect x="426.253" y="53.343" transform="matrix(0.0875 -0.9962 0.9962 0.0875 332.0744 477.4164)" style="fill:#FFFFFF;" width="0.781" height="8.194"/>
				
					<rect x="421.479" y="115.816" transform="matrix(0.1087 -0.9941 0.9941 0.1087 257.9546 525.2081)" style="fill:#FFFFFF;" width="0.781" height="5.87"/>
				
					<rect x="425.47" y="63.661" transform="matrix(0.0205 -0.9998 0.9998 0.0205 349.5524 491.9539)" style="fill:#FFFFFF;" width="0.781" height="7.821"/>
				
					<rect x="422.151" y="107.069" transform="matrix(0.0696 -0.9976 0.9976 0.0696 283.224 524.0106)" style="fill:#FFFFFF;" width="0.781" height="6.192"/>
				
					<rect x="423.734" y="86.284" transform="matrix(0.1467 -0.9892 0.9892 0.1467 273.082 496.1338)" style="fill:#FFFFFF;" width="0.781" height="6.982"/>
				<polygon style="fill:#FFFFFF;" points="428.623,79.754 421.255,79.494 421.28,78.713 428.648,78.973 				"/>
				
					<rect x="422.975" y="96.233" transform="matrix(0.1171 -0.9931 0.9931 0.1171 274.9404 508.3312)" style="fill:#FFFFFF;" width="0.783" height="6.601"/>
			</g>
		</g>
		<g>
			<path style="fill:#9B7BFF;" d="M319.789,175.846l-8.204-49.614c0,0-60.747,23.633-60.16,23.633
				c0.585,0,21.095,45.904,21.095,45.904l8.009-0.979l0.586,10.159l36.721,31.446l46.294-27.539l0.976-13.479L319.789,175.846z"/>
			<polygon style="fill:#002547;" points="317.745,229.519 281.675,193.595 260.664,150.134 311.585,126.858 311.911,127.57 
				264.221,151.165 282.346,193.189 317.883,226.916 364.682,196.471 365.107,197.126 			"/>
			<polygon style="fill:#002547;" points="282.189,193.779 281.861,193.071 319.643,174.958 319.955,176.199 			"/>
			
				<rect x="286.68" y="192.266" transform="matrix(0.9315 -0.3637 0.3637 0.9315 -49.2445 123.755)" style="fill:#002547;" width="34.711" height="0.782"/>
			
				<rect x="317.106" y="226.76" transform="matrix(0.9975 -0.07 0.07 0.9975 -15.4383 22.8028)" style="fill:#002547;" width="0.783" height="9.649"/>
			<polygon style="fill:#002547;" points="358.44,201.271 320.061,186.705 320.34,185.975 358.72,200.542 			"/>
			<g>
				<path style="fill:#FF577F;" d="M327.139,185.721l-3.901,12.219l27.244,2.552c0,0-14.009,24.496-43.222,11.673
					C281.221,200.735,305.62,174.231,327.139,185.721z"/>
				<path style="fill:#FFC931;" d="M350.481,200.493c0,0-14.006,24.497-43.222,11.673c-26.034-11.431-1.642-37.934,19.877-26.444
					l-0.501,1.59c-0.14-0.007-0.279-0.021-0.416-0.044c-2.555-0.27-3.926-1.546-6.113-2.553c-2-0.905-2.094,1.094-3.458,2.284
					c-1.555,1.189-2.554,0.729-4.106,0c-1.556-0.825-2.736-0.634-4.377,0.094c-0.636,0.271-2.009,0.818-2.282,1.46
					c-0.366,0.817,0.363,1.364,0.363,1.998c-0.09,2.014-2.19,2.189-3.457,3.196c-1.824,1.371-0.366,2.276,0.539,3.83
					c1.189,2.188-0.366,2.552-1.633,4.012c-1.286,1.364-0.279,1.919,1.182,2.735c0.763,0.357,2.663,1.54,3.349,2.729
					c0.989-0.212,2.084-0.423,3.034-0.087c1.916,0.823,2.004,3.195,3.282,4.472c4.194,4.106,9.847-3.282,14.129-3.282
					c2.189,0,3.195,2.092,5.296,2.458c2.094,0.46,3.369-0.905,4.917-1.999c1.919-1.46,3.377-1.823,5.66-2.101
					c2.189-0.278,1.366-1.372,2.275-3.195c0.527-1.094,1.433-2.16,2.555-3.115L350.481,200.493z"/>
				<path style="fill:#FFFFFF;" d="M318.438,201.527c0,1.41-2.653,2.553-5.927,2.553c-3.275,0-5.927-1.144-5.927-2.553
					c0-1.41,2.651-2.554,5.927-2.554C315.784,198.973,318.438,200.117,318.438,201.527z"/>
				<path style="fill:#FFFFFF;" d="M317.159,196.694c0,0.62-1.04,1.124-2.323,1.124c-1.285,0-2.325-0.504-2.325-1.124
					c0-0.621,1.04-1.126,2.325-1.126C316.119,195.568,317.159,196.074,317.159,196.694z"/>
				<path style="fill:#FFFFFF;" d="M320.2,191.861c0,1.242-2.19,2.249-4.894,2.249c-2.703,0-4.895-1.006-4.895-2.249
					c0-1.243,2.191-2.249,4.895-2.249C318.01,189.612,320.2,190.619,320.2,191.861z"/>
				<path style="fill:#FFFFFF;" d="M327.009,204.354c0,0.722-0.98,1.306-2.189,1.306c-1.21,0-2.188-0.583-2.188-1.306
					c0-0.723,0.979-1.308,2.188-1.308C326.028,203.046,327.009,203.631,327.009,204.354z"/>
				<path style="fill:#FFFFFF;" d="M338.193,204.293c0,1.393-1.647,2.522-3.677,2.522c-2.032,0-3.677-1.13-3.677-2.522
					c0-1.394,1.645-2.524,3.677-2.524C336.546,201.769,338.193,202.899,338.193,204.293z"/>
				<path style="fill:#FFFFFF;" d="M318.925,207.392c0,0.723-1.022,1.308-2.28,1.308c-1.26,0-2.278-0.585-2.278-1.308
					c0-0.721,1.019-1.307,2.278-1.307C317.903,206.085,318.925,206.671,318.925,207.392z"/>
				<path style="fill:#FFFFFF;" d="M328.347,200.007c0,0.738-1.579,1.337-3.526,1.337s-3.525-0.598-3.525-1.337
					c0-0.74,1.578-1.337,3.525-1.337S328.347,199.268,328.347,200.007z"/>
			</g>
		</g>
	</g>
</g>
<g id="TEXTS">
	
		<text transform="matrix(0.998 -0.0636 0.0636 0.998 86.6592 328.6754)" style="fill:#FFFFFF; font-family:'Acme-Regular'; font-size:16.1931px;">TV STREAMING</text>
	
		<text transform="matrix(0.9809 -0.1945 0.1945 0.9809 261.6069 347.7416)" style="fill:#FFFFFF; font-family:'Acme-Regular'; font-size:21.5243px;">DRIVE-IN</text>
	<text transform="matrix(0.9773 -0.2121 0.2121 0.9773 274.8476 371.8474)"><tspan x="0" y="0" style="fill:#FF577F; font-family:'Acme-Regular'; font-size:20.3489px;">MOVIE</tspan><tspan x="-0.021" y="19.502" style="fill:#FF577F; font-family:'Acme-Regular'; font-size:20.3489px;">NIGHT</tspan></text>
	<text transform="matrix(1 0 0 1 364.3962 104.6914)" style="fill:#FFFFFF; font-family:'Acme-Regular'; font-size:52.5397px;">3</text>
</g>
</svg>
